# xmcd
#
# Track frame offsets:
#	150
#	17424
#	37926
#	56628
#	75294
#	92748
#	107986
#	127170
#	143342
#	158648
#
# Disc length: 2344 seconds
#
# Revision: 1
# Processed by: cddbd v1.5.2PL0 Copyright (c) Steve Scherf et al.
# Submitted via: audiograbber 1.83.01
#
DISCID=6f09260a
DTITLE=Jeani - Jeani
DYEAR=2000
DGENRE=Country
TTITLE0=Hold Me
TTITLE1=Be So Right About Being So Wrong
TTITLE2=After All
TTITLE3=What About Me
TTITLE4=Picking Up The Pieces
TTITLE5=You Are My Inspration
TTITLE6=I Forgot To Remember To Forget
TTITLE7=A House Divded
TTITLE8=Stayin Side Of Good
TTITLE9=Think Of Me
EXTD=
EXTT0=
EXTT1=
EXTT2=
EXTT3=
EXTT4=
EXTT5=
EXTT6=
EXTT7=
EXTT8=
EXTT9=
PLAYORDER=
